<svg width="100%" height="100%" viewBox="0 0 375 48" fill="none" xmlns="http://www.w3.org/2000/svg">
<style>
@media screen and (min-width: 600px) {
    .headerRect{
        height: 20px;
    }
    .smaller{
        transform: scale(.5);
    }
    .icons{
        transform-origin: top right;
    }
}
@media screen and (min-width: 1200px) {
    .headerRect{
        height: 8px;
    }
    .smaller{
        transform: scale(.2);
    }
    .icons{
        transform-origin: top right;
    }
}
</style>
<rect class="headerRect" width="375" height="48" fill="white"/>
<path class="smaller" fill-rule="evenodd" clip-rule="evenodd" d="M20.3491 9.10339C18.2237 10.0109 15.8814 12.5683 15.1443 15.7806C14.2104 19.8488 18.1026 21.5709 18.4257 21.0089C18.7942 20.3437 17.724 20.1169 17.5018 18.008C17.2141 15.2804 18.4661 12.2332 20.0361 10.8977C20.3289 10.6502 20.3137 10.9957 20.3137 11.635C20.3137 12.7797 20.2531 23.0456 20.2531 25.1853C20.2531 28.0831 20.137 29.0009 19.925 29.9032C19.7079 30.821 19.3647 31.4397 19.6272 31.6769C19.92 31.945 21.1669 31.3108 21.8837 30.2848C22.747 29.0576 23.0499 27.5829 23.1054 25.9845C23.171 24.051 23.166 20.9934 23.171 19.2455C23.171 17.6419 23.1963 12.955 23.1458 10.1346C23.1256 9.44885 21.2426 8.72699 20.3491 9.10339ZM118.522 24.3294C118.214 24.3294 118.073 24.6543 117.957 25.1957C117.553 27.088 117.129 27.5159 116.579 27.5159C115.968 27.5159 115.418 26.5775 115.276 24.7007C115.165 23.226 115.18 20.5087 115.322 17.8069C115.352 17.2501 115.201 16.7035 113.737 16.1621C113.106 15.9301 112.187 15.5846 111.732 16.7087C110.445 19.8694 109.94 22.3804 109.819 23.4013C109.814 23.4529 109.749 23.4632 109.738 23.3446C109.663 22.5248 109.496 21.0398 109.471 17.9204C109.466 17.3119 109.34 16.7912 108.678 16.3684C108.249 16.0951 106.947 15.6053 106.477 16.1879C106.073 16.6623 105.599 17.9358 105.109 19.4466C104.71 20.6737 104.438 21.5039 104.438 21.5039C104.438 21.5039 104.443 18.1885 104.448 16.9355C104.448 16.4612 104.13 16.3065 104.034 16.2756C103.6 16.1467 102.742 15.9353 102.378 15.9353C101.929 15.9353 101.823 16.1879 101.823 16.5591C101.823 16.6056 101.752 20.9212 101.752 23.9376V24.3655C101.505 25.7525 100.702 27.6345 99.8287 27.6345C98.9503 27.6345 98.5414 26.8508 98.5414 23.2518C98.5414 21.1533 98.602 20.2406 98.6323 18.7247C98.6474 17.8533 98.6828 17.1779 98.6828 17.0284C98.6777 16.5591 97.8801 16.3271 97.5116 16.2395C97.138 16.1518 96.8149 16.1157 96.5625 16.1312C96.2041 16.1518 95.9517 16.389 95.9517 16.719C95.9517 16.8943 95.9517 17.2294 95.9517 17.2294C95.4923 16.4973 94.7552 15.9868 94.2605 15.8373C92.9379 15.4403 91.5546 15.7909 90.5097 17.2758C89.6817 18.4514 89.182 19.7869 88.9851 21.705C88.8387 23.1074 88.8892 24.5305 89.1416 25.7319C88.8336 27.088 88.2581 27.6448 87.6321 27.6448C86.7235 27.6448 86.0621 26.1341 86.1379 23.5199C86.1883 21.8029 86.5266 20.5964 86.8951 18.8485C87.0516 18.106 86.9254 17.7141 86.6023 17.3429C86.3095 17.0026 85.6785 16.8273 84.7748 17.0387C84.1337 17.1933 83.2099 17.3583 82.3719 17.4821C82.3719 17.4821 82.4224 17.2758 82.4627 16.9149C82.6798 15.0123 80.6454 15.167 79.9941 15.7754C79.6054 16.1415 79.3429 16.5695 79.242 17.3377C79.0855 18.5597 80.0648 19.1372 80.0648 19.1372C79.7417 20.6325 78.9542 22.5867 78.1414 23.9994C77.7073 24.7574 77.3691 25.3194 76.94 25.9124C76.94 25.6906 76.94 25.4689 76.9349 25.2472C76.9248 22.102 76.9652 19.627 76.9854 18.735C77.0005 17.8636 77.0359 17.2088 77.0359 17.0541C77.0308 16.7138 76.8339 16.5849 76.425 16.4199C76.0616 16.2756 75.6375 16.1776 75.1933 16.1415C74.6379 16.0951 74.2997 16.3993 74.3098 16.7551C74.3098 16.8221 74.3098 17.2346 74.3098 17.2346C73.8504 16.5024 73.1134 15.992 72.6187 15.8424C71.296 15.4454 69.9128 15.796 68.8678 17.281C68.0399 18.4566 67.4997 20.1117 67.3432 21.6946C67.2019 23.1693 67.2271 24.4222 67.424 25.4792C67.212 26.5363 66.6062 27.6448 65.9247 27.6448C65.0513 27.6448 64.5515 26.8611 64.5515 23.2621C64.5515 21.1636 64.6121 20.2509 64.6424 18.735C64.6626 17.8636 64.6929 17.1882 64.6929 17.0387C64.6878 16.5695 63.8902 16.3374 63.5217 16.2498C63.133 16.157 62.7998 16.126 62.5423 16.1467C62.2041 16.1724 61.9668 16.4818 61.9668 16.7087V17.2398C61.5075 16.5076 60.7654 15.9971 60.2757 15.8476C58.953 15.4506 57.5799 15.8115 56.5299 17.2862C55.8433 18.2504 55.288 19.3177 55.0053 21.6792C54.9195 22.3598 54.8841 22.9991 54.8892 23.5973C54.6166 25.2988 53.4101 27.253 52.4256 27.253C51.8501 27.253 51.2999 26.1134 51.2999 23.6901C51.2999 20.4572 51.4968 15.8579 51.5321 15.4145C51.5321 15.4145 52.779 15.3939 53.0213 15.3887C53.6423 15.3835 54.2077 15.399 55.0356 15.3526C55.4495 15.332 55.8484 13.8161 55.4243 13.6305C55.2274 13.5428 53.8543 13.4706 53.3091 13.4603C52.8749 13.4345 51.5977 13.3366 51.5977 13.3366C51.5977 13.3366 51.7138 10.2841 51.7391 9.9593C51.7593 9.69118 51.416 9.55197 51.2242 9.46947C50.7446 9.26323 50.3205 9.16526 49.8157 9.06214C49.114 8.91261 48.801 9.05698 48.7354 9.66025C48.6395 10.5677 48.594 13.2386 48.594 13.2386C48.0791 13.2386 46.3274 13.1355 45.8175 13.1355C45.3379 13.1355 44.828 15.2186 45.4843 15.2443C46.2415 15.2753 47.5642 15.3011 48.4426 15.3268C48.4426 15.3268 48.4022 20.0034 48.4022 21.4472C48.4022 21.5967 48.4022 21.7462 48.4022 21.8906C47.9226 24.448 46.2213 25.8247 46.2213 25.8247C46.5848 24.1335 45.8427 22.8651 44.4999 21.7926C44.0052 21.3956 43.0309 20.648 41.9354 19.823C41.9354 19.823 42.5664 19.1888 43.1318 17.9152C43.5306 17.0129 43.5458 15.9765 42.5715 15.7496C40.9611 15.3732 39.6283 16.5746 39.2346 17.8636C38.9266 18.8588 39.0932 19.5961 39.694 20.3644C39.7343 20.4211 39.7848 20.4778 39.8353 20.5345C39.4718 21.2512 38.9721 22.2103 38.548 22.9527C37.3718 25.0204 36.4833 26.6548 35.8119 26.6548C35.2767 26.6548 35.2818 24.9946 35.2818 23.4426C35.2818 22.102 35.3777 20.0911 35.4585 18.0029C35.4837 17.3119 35.1455 16.9201 34.575 16.5643C34.2318 16.3477 33.4947 15.9198 33.0656 15.9198C32.4245 15.9198 30.5819 16.0074 28.8402 21.1326C28.6231 21.7771 28.189 22.9579 28.189 22.9579L28.2243 16.7963C28.2243 16.652 28.1486 16.5127 27.977 16.4148C27.6842 16.2498 26.8966 15.9198 26.2 15.9198C25.8668 15.9198 25.7002 16.0796 25.7002 16.3942L25.6396 26.0361C25.6396 26.7683 25.6598 27.6242 25.7305 27.9954C25.8012 28.3667 25.9173 28.676 26.0586 28.8565C26.2 29.037 26.3666 29.1762 26.6341 29.2329C26.8865 29.2845 28.2698 29.4649 28.3404 28.9287C28.4263 28.2842 28.4313 27.5881 29.1583 24.9946C30.2891 20.9522 31.7632 18.9825 32.4548 18.2813C32.5759 18.1575 32.7173 18.1524 32.7072 18.3535C32.6769 19.2403 32.5759 21.4575 32.5052 23.3343C32.3185 28.3667 33.2171 29.2999 34.5044 29.2999C35.4888 29.2999 36.877 28.3048 38.3663 25.7886C39.2951 24.2212 40.1937 22.6795 40.845 21.5709C41.2943 21.9937 41.8041 22.4526 42.309 22.9373C43.4852 24.0716 43.8689 25.1493 43.6164 26.1702C43.4196 26.9539 42.6825 27.7583 41.37 26.9745C40.9863 26.7477 40.8248 26.5723 40.4411 26.3094C40.2341 26.1702 39.9161 26.1289 39.7293 26.2784C39.2396 26.6548 38.9569 27.1344 38.7954 27.7273C38.6389 28.3048 39.2093 28.609 39.7949 28.8771C40.3048 29.1092 41.3952 29.3154 42.0919 29.3412C44.8028 29.434 46.9735 28.0109 48.488 24.3397C48.7606 27.5108 49.9116 29.3051 51.9107 29.3051C53.2485 29.3051 54.5913 27.5469 55.1769 25.8195C55.3435 26.5259 55.596 27.1395 55.914 27.6551C57.4588 30.1404 60.4473 29.6041 61.9517 27.4953C62.4161 26.8456 62.4868 26.6084 62.4868 26.6084C62.7039 28.5987 64.284 29.2948 65.1876 29.2948C66.1973 29.2948 67.2423 28.8101 67.9743 27.1344C68.0601 27.3148 68.156 27.4901 68.257 27.6551C69.7967 30.1404 72.7903 29.6041 74.2896 27.4953C74.3603 27.3973 74.4209 27.3097 74.4764 27.2272L74.5218 28.5368C74.5218 28.5368 73.6636 29.336 73.1386 29.8259C70.8215 31.9863 69.0596 33.6259 68.9284 35.5337C68.7618 37.9674 70.7054 38.8697 72.1744 38.9883C73.7343 39.112 75.0721 38.2407 75.8899 37.0135C76.6118 35.9359 77.0864 33.6105 77.051 31.3211C77.0359 30.4033 77.0157 29.2381 76.9955 27.9851C77.8083 27.0261 78.727 25.8092 79.5701 24.3913C80.4889 22.8393 81.4783 20.7614 81.9832 19.1424C81.9832 19.1424 82.8414 19.1475 83.7551 19.0908C84.0479 19.0753 84.1287 19.1321 84.0782 19.3486C84.0126 19.6116 82.9221 23.886 83.9166 26.7322C84.5982 28.6812 86.1328 29.3102 87.0415 29.3102C88.1067 29.3102 89.1264 28.4956 89.6716 27.2787C89.7373 27.4128 89.8079 27.5417 89.8837 27.6654C91.4234 30.1507 94.4069 29.6093 95.9214 27.5056C96.2647 27.0312 96.4565 26.6187 96.4565 26.6187C96.7796 28.6812 98.3597 29.3154 99.2633 29.3154C100.202 29.3154 101.096 28.9235 101.823 27.1808C101.853 27.949 101.904 28.5781 101.974 28.774C102.02 28.8926 102.287 29.0473 102.484 29.1195C103.347 29.4443 104.221 29.2896 104.549 29.2226C104.776 29.1762 104.948 28.9906 104.973 28.5214C105.033 27.2787 104.998 25.1853 105.367 23.6334C105.988 21.0244 106.568 20.0138 106.846 19.5136C106.997 19.2352 107.174 19.1888 107.179 19.4827C107.194 20.0859 107.224 21.8442 107.462 24.216C107.638 25.9588 107.876 26.99 108.057 27.3148C108.577 28.2481 109.218 28.2893 109.738 28.2893C110.072 28.2893 110.763 28.1965 110.703 27.6036C110.672 27.3148 110.728 25.5308 111.339 22.9579C111.743 21.2822 112.409 19.7663 112.651 19.2146C112.742 19.0083 112.783 19.1733 112.783 19.2042C112.732 20.3592 112.616 24.1335 113.08 26.2011C113.706 29.0009 115.524 29.3102 116.155 29.3102C117.503 29.3102 118.608 28.2687 118.982 25.5205C119.052 24.845 118.921 24.3294 118.522 24.3294ZM61.9668 22.6331C61.8911 24.0871 61.6084 25.3039 61.1642 26.1856C60.3514 27.784 58.7511 28.2893 58.0443 25.9794C57.5345 24.314 57.7061 22.0453 57.9181 20.8181C58.2311 18.998 59.0187 17.709 60.2504 17.8327C61.5175 17.9616 62.1284 19.6116 61.9668 22.6331ZM74.3098 22.6537C74.2391 24.0252 73.8858 25.4071 73.5071 26.1856C72.7196 27.7943 71.0688 28.2996 70.3873 25.9794C69.9229 24.3965 70.0339 22.3495 70.2611 21.0604C70.559 19.3847 71.2859 17.8327 72.5934 17.8327C73.8656 17.8327 74.4916 19.2506 74.3098 22.6537ZM74.6329 32.0224C74.6178 34.5283 74.229 36.7196 73.3961 37.359C72.2148 38.2613 70.6296 37.5858 70.9578 35.7606C71.2506 34.1415 72.6186 32.4916 74.6329 30.4755C74.6379 30.4704 74.6379 30.9293 74.6329 32.0224ZM95.9365 22.6692C95.8658 24.1747 95.5377 25.3555 95.1339 26.1856C94.3463 27.7943 92.7056 28.2945 92.014 25.9794C91.6354 24.7213 91.6203 22.6124 91.8929 20.8542C92.1705 19.065 92.9429 17.709 94.2252 17.8327C95.4822 17.9565 96.0728 19.6116 95.9365 22.6692Z" fill="black"/>
<g class="smaller icons">
<path d="M304.5 33.2609C304.106 33.2609 303.731 33.1362 303.413 32.9001C301.259 31.3012 296.109 27.3239 294.818 24.9143C293.128 21.7654 294.143 17.7213 297.075 15.8997C298.023 15.3118 299.095 15 300.186 15C301.818 15 303.351 15.6681 304.5 16.8573C305.648 15.6681 307.182 15 308.813 15C309.904 15 310.977 15.3118 311.924 15.8997C314.857 17.7213 315.871 21.7654 314.186 24.9143C312.894 27.3239 307.745 31.3012 305.59 32.9001C305.268 33.1362 304.893 33.2609 304.5 33.2609ZM300.186 16.3362C299.346 16.3362 298.519 16.5767 297.786 17.031C295.439 18.4918 294.634 21.7432 295.998 24.2819C297.196 26.5177 302.586 30.6242 304.209 31.8267C304.379 31.9514 304.616 31.9514 304.786 31.8267C306.408 30.6197 311.799 26.5133 312.997 24.2819C314.36 21.7432 313.556 18.4874 311.209 17.031C310.48 16.5767 309.653 16.3362 308.813 16.3362C307.342 16.3362 305.966 17.0488 305.036 18.287L304.5 19.0085L303.963 18.287C303.033 17.0488 301.661 16.3362 300.186 16.3362Z" fill="black" stroke="black" stroke-width="0.6"/>
<rect width="24" height="24" transform="translate(249 12)" fill="white"/>
<rect x="252" y="15" width="18" height="18" rx="5" stroke="black" stroke-width="1.8"/>
<line x1="261.1" y1="18.9" x2="261.1" y2="29.1" stroke="black" stroke-width="1.8" stroke-linecap="round"/>
<line x1="255.9" y1="23.8" x2="266.1" y2="23.8" stroke="black" stroke-width="1.8" stroke-linecap="round"/>
<path d="M342.81 31.7478C342.832 31.4539 342.708 31.1681 342.479 30.9827C340.279 29.2037 338.9 26.5525 338.9 23.5868C338.9 18.2763 343.387 13.9 349.01 13.9C354.62 13.9 359.108 18.2757 359.108 23.5868C359.108 28.8966 354.609 33.2735 348.998 33.2735C348.066 33.2735 347.18 33.1544 346.327 32.9277C346.157 32.8825 345.977 32.8882 345.81 32.944L342.646 34.0022L342.81 31.7478Z" stroke="black" stroke-width="1.8" stroke-linejoin="round"/>
<path d="M347.15 20.7953C347.222 20.8057 347.282 20.8162 347.355 20.8266C348.428 21.056 349.525 22.0363 350.369 22.6203C350.84 22.954 351.237 22.9227 351.708 22.6098C352.709 21.9216 353.746 21.2646 354.77 20.5867C355.048 20.399 355.337 20.2009 355.675 20.4512C356.049 20.7223 355.82 21.0143 355.627 21.2854C354.614 22.6828 353.613 24.0802 352.588 25.4672C351.889 26.4266 350.9 26.5622 349.839 25.8843C349.103 25.4046 348.344 24.9562 347.62 24.4557C347.138 24.1219 346.74 24.1637 346.282 24.4765C345.269 25.1648 344.244 25.8218 343.219 26.4996C342.942 26.6873 342.652 26.8855 342.315 26.6247C341.977 26.3745 342.158 26.0929 342.339 25.8322C343.388 24.3931 344.425 22.954 345.474 21.5149C345.823 21.0247 346.475 20.7327 347.15 20.7953Z" fill="black"/>
</g>
</svg>
